<svg id="Layer_1" enable-background="new 0 0 64 64" height="512" viewBox="0 0 64 64" width="512" xmlns="http://www.w3.org/2000/svg"><g><path d="m24.96 2.17c-2.56 0-4.91 1.51-6.01 3.77 2.84 1.11 4.34 4.03 3.68 7.52-.09.48-.51.81-.98.81-.06 0-.12 0-.18-.02-.55-.1-.91-.62-.8-1.16.44-2.35-.4-4.95-3.25-5.52h-.01c-.06-.01-.12-.03-.17-.05-.01 0-.03 0-.04-.01-.88-.4-1.8-.6-2.75-.6-3.69 0-6.7 3.01-6.7 6.7 0 .91.19 1.8.55 2.65.01.03.02.06.03.09.52 1.32 1.86 1.96 3.14 1.49.51-.19 1.09.08 1.28.59.19.52-.08 1.1-.6 1.29-.5.18-1.01.27-1.52.27-1.52 0-2.95-.8-3.78-2.15-2.87.8-4.87 3.41-4.87 6.45 0 1.11.27 2.19.79 3.15 2.45-1.08 5.35-.26 6.97 2.09.31.46.19 1.08-.26 1.39-.18.12-.37.18-.57.18-.32 0-.63-.15-.82-.43-1.19-1.74-3.42-2.21-5.1-1.08h-.01c-.02.02-.03.03-.05.04-1.81 1.07-2.93 3.02-2.93 5.1 0 2.85 2.03 5.31 4.83 5.84.35.06.64.32.76.66.11.35.03.73-.22 1-1.14 1.23-1.76 2.85-1.76 4.54 0 3.68 2.98 6.68 6.65 6.7 1.23-.28 4.36-1.38 4.65-2.87.1-.54.62-.89 1.17-.79.54.11.9.64.79 1.18-.48 2.49-3.79 3.75-5.54 4.26.08 3.21 2.7 5.78 5.93 5.78.98 0 1.94-.25 2.81-.71h.01c.07-.1.17-.17.29-.23 1.87-.95 2.63-3.11 1.74-4.92-.25-.5-.05-1.1.45-1.34.49-.25 1.09-.05 1.34.45 1.15 2.32.56 4.99-1.29 6.67.93.57 2 .88 3.12.88 2.39 0 4.58-1.47 5.49-3.68v-24.16c-1.27-1.16-3.06-1.32-4.48-.36-.46.31-1.08.2-1.39-.26s-.19-1.08.27-1.39c1.71-1.16 3.83-1.26 5.6-.38v-9.56c-1.27-1.16-3.06-1.32-4.49-.37-.46.31-1.08.18-1.38-.27-.31-.46-.19-1.08.27-1.39 1.71-1.15 3.83-1.24 5.6-.37v-13.14c-.97-2.6-3.46-4.33-6.26-4.33zm-9.97 41.66c-.06 0-.13-.01-.19-.02-3.08-.6-5.03-3.54-4.44-6.7.1-.54.62-.9 1.17-.8.54.1.9.62.79 1.17-.38 2.06.87 3.98 2.86 4.37.54.1.9.63.79 1.17-.09.48-.51.81-.98.81zm-.6-17.67c-.46.31-1.08.19-1.39-.27s-.19-1.08.27-1.39c2.6-1.75 6.06-1.05 7.88 1.6.31.46.19 1.08-.26 1.39-.18.12-.37.18-.57.18-.32 0-.63-.16-.82-.44-1.19-1.73-3.43-2.2-5.11-1.07zm11.53 15.44c.08.54-.3 1.05-.85 1.13-.28.04-.55.06-.82.06-2.77 0-5.14-2.03-5.58-4.92-.08-.55.29-1.06.84-1.14.54-.09 1.06.29 1.14.84.31 2.07 2.14 3.46 4.14 3.18.54-.09 1.05.3 1.13.85z"/><path d="m38.88 15.62 1.32-2.15c.24.05.49.09.75.09 2.08 0 3.77-1.69 3.77-3.77 0-2.07-1.69-3.76-3.77-3.76s-3.77 1.69-3.77 3.76c0 .88.31 1.66.81 2.31l-.95 1.53h-4.13v2.6h4.86c.46 0 .88-.23 1.11-.61z"/><path d="m47.28 22.54 3.65-4.27c.2-.24.31-.54.31-.84v-4.12c1.43-.53 2.47-1.9 2.47-3.52 0-2.07-1.7-3.76-3.77-3.76-2.08 0-3.77 1.69-3.77 3.76 0 1.62 1.03 3 2.47 3.52v3.64l-2.95 3.45h-12.77v2.6h13.37c.38 0 .74-.17.99-.46z"/><path d="m48.15 28.3 5.15-5.91h3.41c.53 1.43 1.9 2.46 3.52 2.46 2.08 0 3.77-1.69 3.77-3.77 0-2.07-1.69-3.76-3.77-3.76-1.63 0-3 1.04-3.52 2.47h-4c-.38 0-.74.16-.99.44l-5.15 5.91h-13.65v2.6h14.25c.38 0 .74-.16.98-.44z"/><path d="m40.96 50.44c-.26 0-.51.04-.75.09l-1.32-2.15c-.24-.38-.65-.61-1.1-.61h-4.86v2.6h4.13l.94 1.53c-.5.64-.81 1.43-.81 2.31 0 2.07 1.69 3.76 3.77 3.76s3.77-1.69 3.77-3.76c0-2.08-1.69-3.77-3.77-3.77z"/><path d="m51.24 50.69v-4.12c0-.3-.11-.6-.31-.85l-3.65-4.27c-.25-.28-.61-.45-.99-.45h-13.37v2.6h12.77l2.95 3.45v3.64c-1.44.53-2.47 1.9-2.47 3.52 0 2.07 1.69 3.76 3.77 3.76 2.07 0 3.77-1.69 3.77-3.76 0-1.62-1.04-3-2.47-3.52z"/><path d="m60.23 39.15c-1.62 0-2.99 1.03-3.52 2.46h-3.41l-5.15-5.91c-.24-.28-.6-.44-.98-.44h-14.25v2.6h13.65l5.15 5.91c.24.28.6.44.99.44h4c.52 1.43 1.89 2.47 3.52 2.47 2.08 0 3.77-1.69 3.77-3.76 0-2.08-1.69-3.77-3.77-3.77z"/></g></svg>