<svg id="Layer_1" enable-background="new 0 0 500 500" viewBox="0 0 500 500" xmlns="http://www.w3.org/2000/svg"><path clip-rule="evenodd" d="m331.314 260.12h-201.553c-5.996 0-9.262 7.344-4.859 11.747 1.252 1.252 2.973 2.029 4.859 2.029h201.553c5.996 0 9.261-7.344 4.859-11.747-1.252-1.252-2.973-2.029-4.859-2.029zm46.94 91.579c.882-.882 2.372-.882 3.253 0l51.506 51.506c.882.882.882 2.371 0 3.253l-26.117 26.116c-.882.882-2.372.882-3.253 0l-51.506-51.506c-.882-.882-.882-2.372 0-3.254l3.736-3.736c.365-.365.365-.959 0-1.324l-19.942-19.942c-.347-.347-.9-.368-1.272-.048-30.361 26.072-68.063 39.11-105.766 39.11-89.77 0-162.57-72.79-162.57-162.542h.028c0-89.77 72.79-162.57 162.542-162.57v.028c41.599 0 83.198 15.869 114.936 47.607 60.021 60.021 63.505 155.76 9.223 219.852-.316.373-.296.92.05 1.266l20.006 20.006c.365.365.959.365 1.324 0zm-286.836-120.723c0-76.831 62.288-139.119 139.119-139.119s139.119 62.287 139.119 139.119h-.028c-.001 76.858-62.251 139.119-139.092 139.119-76.83 0-139.118-62.288-139.118-139.119zm123.794-28.671c13.794 13.795 37.034 3.702 37.034-15.325v-30.162c0-.438-.291-.807-.716-.91-13.758-3.325-28.226-3.325-41.985 0-.425.103-.716.472-.716.91v30.162c0 5.961 2.444 11.387 6.383 15.325zm-73.62 41.951h177.885c.259 0 .483-.093.665-.278.183-.184.274-.408.271-.668-.235-24.979-9.807-46.89-26.404-63.488-7.117-7.117-15.412-13.055-24.556-17.486-.299-.145-.624-.127-.905.049s-.439.462-.439.793v23.8c0 20.68-16.891 37.572-37.572 37.572-20.68 0-37.572-16.892-37.572-37.572v-23.798c0-.332-.158-.618-.439-.793-.281-.176-.607-.194-.905-.049-30.484 14.768-50.964 45.898-50.964 80.958v.024c-.001.516.42.936.935.936z" fill-rule="evenodd"/></svg>