<?xml version="1.0" encoding="UTF-8"?>
<svg xmlns="http://www.w3.org/2000/svg" id="Icons" viewBox="0 0 60 60" width="512" height="512"><path d="M2,20c0,2.838,7.8,6,19,6,.555,0,1.1-.022,1.644-.04a2.061,2.061,0,0,1,.307-.484,20.883,20.883,0,0,1,2.527-2.528,2.128,2.128,0,0,1,2.246-.322l2.724,1.163a17.455,17.455,0,0,1,3.85-1.6l1.1-2.75a2.179,2.179,0,0,1,1.8-1.358,18.942,18.942,0,0,1,2.8-.036V11.561C36.409,14.464,28.532,16,21,16S5.591,14.464,2,11.561Zm7.026-.38a1,1,0,0,1,1.2-.747c.317.073.64.144.97.21a1,1,0,0,1-.2,1.98.955.955,0,0,1-.2-.019q-.525-.105-1.03-.224A1,1,0,0,1,9.026,19.62ZM4.094,17.776a1,1,0,0,1,1.33-.482q.45.211.943.406a1,1,0,1,1-.734,1.86c-.368-.146-.722-.3-1.057-.454A1,1,0,0,1,4.094,17.776Z"/><path d="M2,32c0,2.509,6.414,5.4,16.054,5.91.014-.241.012-.483.036-.723a2.176,2.176,0,0,1,1.351-1.79L22.2,34.3a17.355,17.355,0,0,1,1.6-3.851l-1.062-2.488C22.158,27.977,21.584,28,21,28c-7.532,0-15.409-1.536-19-4.439Z"/><ellipse cx="21" cy="8" rx="19" ry="6"/><circle cx="39" cy="39" r="6"/><path d="M39,50A11,11,0,1,0,28,39,11.013,11.013,0,0,0,39,50Zm0-19a8,8,0,1,1-8,8A8.009,8.009,0,0,1,39,31Z"/><path d="M20.081,40.625a.182.182,0,0,0,.112.124l3.213,1.283a1,1,0,0,1,.6.689,15.375,15.375,0,0,0,1.762,4.247,1,1,0,0,1,.063.909l-1.361,3.19a.157.157,0,0,0,0,.157,18.882,18.882,0,0,0,2.295,2.3.153.153,0,0,0,.169.015l3.19-1.362a1,1,0,0,1,.908.063A15.365,15.365,0,0,0,35.28,54a1,1,0,0,1,.689.6l1.285,3.217a.172.172,0,0,0,.121.109,17.687,17.687,0,0,0,3.239,0,.173.173,0,0,0,.133-.112L42.031,54.6a1,1,0,0,1,.689-.6,15.365,15.365,0,0,0,4.247-1.762,1,1,0,0,1,.908-.063l3.188,1.361a.158.158,0,0,0,.158,0,18.9,18.9,0,0,0,2.3-2.3.156.156,0,0,0,.012-.167l-1.362-3.193a1,1,0,0,1,.063-.909,15.375,15.375,0,0,0,1.762-4.247,1,1,0,0,1,.6-.689l3.218-1.285a.179.179,0,0,0,.107-.122,16.306,16.306,0,0,0,0-3.239.181.181,0,0,0-.113-.135l-3.213-1.283a1,1,0,0,1-.6-.689,15.375,15.375,0,0,0-1.762-4.247,1,1,0,0,1-.063-.909l1.361-3.19a.157.157,0,0,0,0-.157,18.81,18.81,0,0,0-2.3-2.3.154.154,0,0,0-.169-.015l-3.19,1.362a.992.992,0,0,1-.908-.063A15.365,15.365,0,0,0,42.72,24a1,1,0,0,1-.689-.6l-1.285-3.217a.172.172,0,0,0-.121-.109,17.51,17.51,0,0,0-3.239,0,.173.173,0,0,0-.133.112L35.969,23.4a1,1,0,0,1-.689.6,15.365,15.365,0,0,0-4.247,1.762.992.992,0,0,1-.908.063l-3.188-1.361a.16.16,0,0,0-.158,0,19.044,19.044,0,0,0-2.3,2.3.156.156,0,0,0-.012.167l1.362,3.193a1,1,0,0,1-.063.909,15.375,15.375,0,0,0-1.762,4.247,1,1,0,0,1-.6.689l-3.218,1.285a.179.179,0,0,0-.107.122,16.306,16.306,0,0,0,0,3.239ZM39,26A13,13,0,1,1,26,39,13.015,13.015,0,0,1,39,26Z"/><path d="M21,50c.6,0,1.182-.019,1.765-.035l1.029-2.411A17.355,17.355,0,0,1,22.2,43.7l-2.75-1.1a2.176,2.176,0,0,1-1.356-1.8c-.03-.3-.03-.6-.045-.9C9.859,39.51,4.612,37.683,2,35.494V44C2,46.838,9.8,50,21,50Z"/></svg>
