<svg clip-rule="evenodd" fill-rule="evenodd" height="512" stroke-linejoin="round" stroke-miterlimit="2" viewBox="0 0 24 24" width="512" xmlns="http://www.w3.org/2000/svg"><g id="Icon"><path d="m8.959 2.75h-.211c-1.103 0-1.998.895-1.998 1.998v.002c0 1.105.895 2 2 2h6.5c1.105 0 2-.895 2-2s-.895-2-2-2h-.209l-.102-.303c-.238-.715-.907-1.197-1.66-1.197-.724 0-1.834 0-2.558 0-.753 0-1.422.482-1.66 1.197z"/><path d="m18.079 3.75c.111.313.171.649.171 1 0 1.657-1.343 3-3 3h-6.5c-1.657 0-3-1.343-3-3 0 0 .06-.688.17-1h-.42c-.966 0-1.75.783-1.75 1.75v15.5c0 .967.784 1.75 1.75 1.75h13c.966 0 1.75-.783 1.75-1.75v-15.5c0-.967-.784-1.75-1.75-1.75zm-10.079 15h8c.414 0 .75-.336.75-.75s-.336-.75-.75-.75h-8c-.414 0-.75.336-.75.75s.336.75.75.75zm2-3h4c.414 0 .75-.336.75-.75s-.336-.75-.75-.75h-4c-.414 0-.75.336-.75.75s.336.75.75.75zm2.75-6v-.75c0-.414-.336-.75-.75-.75s-.75.336-.75.75v.75h-.75c-.414 0-.75.336-.75.75s.336.75.75.75h.75v.75c0 .414.336.75.75.75s.75-.336.75-.75v-.75h.75c.414 0 .75-.336.75-.75s-.336-.75-.75-.75z"/></g></svg>