<svg height="512" viewBox="0 0 24 24" width="512" xmlns="http://www.w3.org/2000/svg"><path d="m1.5 21v-18a1 1 0 0 1 2 0v10h19v8a1 1 0 0 1 -2 0v-2h-17v2a1 1 0 0 1 -2 0zm3-12a2 2 0 1 0 2-2 2 2 0 0 0 -2 2zm11.6.2v-1.6h1.6a.8.8 0 0 0 .8-.8v-1.6a.8.8 0 0 0 -.8-.8h-1.6v-1.6a.8.8 0 0 0 -.8-.8h-1.6a.8.8 0 0 0 -.8.8v1.6h-1.6a.8.8 0 0 0 -.8.8v1.6a.8.8 0 0 0 .8.8h1.6v1.6a.8.8 0 0 0 .8.8h1.6a.8.8 0 0 0 .8-.8zm3.3666-2.069a1.8011 1.8011 0 0 1 -1.7666 1.469h-.6v.6a1.8022 1.8022 0 0 1 -1.8 1.8h7.2a3.9923 3.9923 0 0 0 -3.0334-3.869zm-8.1666 1.469a1.7777 1.7777 0 0 1 -.8-.1961v2.5961h3.2a1.8022 1.8022 0 0 1 -1.8-1.8v-.6z"/></svg>