<?xml version="1.0" encoding="UTF-8"?>
<svg xmlns="http://www.w3.org/2000/svg" id="Layer_1" data-name="Layer 1" viewBox="0 0 64 64" width="512" height="512"><path d="M61,6H3A1,1,0,0,0,2,7V45a1,1,0,0,0,1,1H21v6H9a1,1,0,0,0-1,1v4a1,1,0,0,0,1,1H55a1,1,0,0,0,1-1V53a1,1,0,0,0-1-1H43V46H61a1,1,0,0,0,1-1V7A1,1,0,0,0,61,6ZM60,8V40H4V8ZM41,52H23V46H41Z"/><path d="M32,27a1,1,0,0,0,1,1h1.76a10.91,10.91,0,0,1,0-8H33a1,1,0,0,0-1,1v2H22v2H32Z"/><path d="M57,20H55.24a10.91,10.91,0,0,1,0,8H57a1,1,0,0,0,1-1V21A1,1,0,0,0,57,20Z"/><path d="M32,17a1,1,0,0,0,1,1h2.79a11,11,0,0,1,18.42,0H57a1,1,0,0,0,1-1V11a1,1,0,0,0-1-1H33a1,1,0,0,0-1,1v2H22v2H32Z"/><path d="M32,37a1,1,0,0,0,1,1H57a1,1,0,0,0,1-1V31a1,1,0,0,0-1-1H54.21a11,11,0,0,1-18.42,0H33a1,1,0,0,0-1,1v2H22v2H32Z"/><path d="M7,38H19a1,1,0,0,0,1-1V23.09a1,1,0,0,0-.06-.34l-1.5-4.09A1,1,0,0,0,17.5,18H17V16h1a1,1,0,0,0,1-1V11a1,1,0,0,0-1-1H8a1,1,0,0,0-1,1v4a1,1,0,0,0,1,1H9v2H8.5a1,1,0,0,0-.94.66l-1.5,4.09a1,1,0,0,0-.06.34V37A1,1,0,0,0,7,38Zm4-22h4v2H11ZM9.2,20h7.6l.73,2H8.47Zm.8,7V25h6v2Zm6,2v2H10V29ZM8,34H18v2H8Z"/><path d="M45,15a9,9,0,1,0,9,9A9,9,0,0,0,45,15Zm0,16a7,7,0,1,1,4.77-12.11l-4.83,5.64-2.23-2.24-1.42,1.42,3,3A1.05,1.05,0,0,0,45,27h0a1,1,0,0,0,.72-.35L51,20.49A6.87,6.87,0,0,1,52,24,7,7,0,0,1,45,31Z"/></svg>
