<?xml version="1.0" encoding="UTF-8" standalone="no"?>
<!-- Created with Inkscape (http://www.inkscape.org/) -->

<svg
   version="1.1"
   id="svg4065"
   xml:space="preserve"
   width="682.66669"
   height="682.66669"
   viewBox="0 0 682.66669 682.66669"
   xmlns="http://www.w3.org/2000/svg"
   xmlns:svg="http://www.w3.org/2000/svg"><defs
     id="defs4069"><clipPath
       clipPathUnits="userSpaceOnUse"
       id="clipPath4079"><path
         d="M 0,512 H 512 V 0 H 0 Z"
         id="path4077" /></clipPath><clipPath
       clipPathUnits="userSpaceOnUse"
       id="clipPath4103"><path
         d="M 0,512 H 512 V 0 H 0 Z"
         id="path4101" /></clipPath></defs><g
     id="g4071"
     transform="matrix(1.3333333,0,0,-1.3333333,0,682.66667)"><g
       id="g4073"><g
         id="g4075"
         clip-path="url(#clipPath4079)"><g
           id="g4081"
           transform="translate(19.2959,241)"><path
             d="M 0,0 V 188.375 L 75,263.5 H 315 V 10.848"
             style="fill:none;stroke:#000000;stroke-width:15;stroke-linecap:butt;stroke-linejoin:miter;stroke-miterlimit:10;stroke-dasharray:none;stroke-opacity:1"
             id="path4083" /></g><g
           id="g4085"
           transform="translate(163.7344,115.3789)"><path
             d="M 0,0 H -144.438 V 110.121"
             style="fill:none;stroke:#000000;stroke-width:15;stroke-linecap:butt;stroke-linejoin:miter;stroke-miterlimit:10;stroke-dasharray:none;stroke-opacity:1"
             id="path4087" /></g></g></g><g
       id="g4089"
       transform="translate(313.5498,115.3789)"><path
         d="M 0,0 H -65.316"
         style="fill:none;stroke:#000000;stroke-width:15;stroke-linecap:butt;stroke-linejoin:miter;stroke-miterlimit:10;stroke-dasharray:none;stroke-opacity:1"
         id="path4091" /></g><g
       id="g4093"
       transform="translate(334.2959,228.7803)"><path
         d="M 0,0 V -73.521"
         style="fill:none;stroke:#000000;stroke-width:15;stroke-linecap:butt;stroke-linejoin:miter;stroke-miterlimit:10;stroke-dasharray:none;stroke-opacity:1"
         id="path4095" /></g><g
       id="g4097"><g
         id="g4099"
         clip-path="url(#clipPath4103)"><g
           id="g4105"
           transform="translate(124.3584,413.4375)"><path
             d="m 0,0 c 0,28.96 23.477,52.438 52.438,52.438 28.96,0 52.437,-23.478 52.437,-52.438 0,-28.96 -23.477,-52.438 -52.437,-52.438 C 23.477,-52.438 0,-28.96 0,0 Z"
             style="fill:none;stroke:#000000;stroke-width:15;stroke-linecap:butt;stroke-linejoin:miter;stroke-miterlimit:10;stroke-dasharray:none;stroke-opacity:1"
             id="path4107" /></g><g
           id="g4109"
           transform="translate(154.2959,417.9521)"><path
             d="M 0,0 14.76,-20.435 45,15.405"
             style="fill:none;stroke:#000000;stroke-width:15;stroke-linecap:butt;stroke-linejoin:miter;stroke-miterlimit:10;stroke-dasharray:none;stroke-opacity:1"
             id="path4111" /></g><g
           id="g4113"
           transform="translate(64.4209,323)"><path
             d="M 0,0 H 134.875"
             style="fill:none;stroke:#000000;stroke-width:15;stroke-linecap:butt;stroke-linejoin:miter;stroke-miterlimit:10;stroke-dasharray:none;stroke-opacity:1"
             id="path4115" /></g><g
           id="g4117"
           transform="translate(64.4209,285)"><path
             d="M 0,0 H 134.875"
             style="fill:none;stroke:#000000;stroke-width:15;stroke-linecap:butt;stroke-linejoin:miter;stroke-miterlimit:10;stroke-dasharray:none;stroke-opacity:1"
             id="path4119" /></g><g
           id="g4121"
           transform="translate(64.4209,248.0625)"><path
             d="M 0,0 H 134.875"
             style="fill:none;stroke:#000000;stroke-width:15;stroke-linecap:butt;stroke-linejoin:miter;stroke-miterlimit:10;stroke-dasharray:none;stroke-opacity:1"
             id="path4123" /></g><g
           id="g4125"
           transform="translate(64.4209,210.9697)"><path
             d="M 0,0 H 74.875"
             style="fill:none;stroke:#000000;stroke-width:15;stroke-linecap:butt;stroke-linejoin:miter;stroke-miterlimit:10;stroke-dasharray:none;stroke-opacity:1"
             id="path4127" /></g><g
           id="g4129"
           transform="translate(19.2959,429.375)"><path
             d="M 0,0 H 75 V 75.125"
             style="fill:none;stroke:#000000;stroke-width:15;stroke-linecap:butt;stroke-linejoin:miter;stroke-miterlimit:10;stroke-dasharray:none;stroke-opacity:1"
             id="path4131" /></g><g
           id="g4133"
           transform="translate(314.2959,43)"><path
             d="M 0,0 H -25 V 34.5 H -189.875 V 0 H -215 v -35.375 h 25.125 V -35.5 H -25 v 0.125 H 0 Z"
             style="fill:none;stroke:#000000;stroke-width:15;stroke-linecap:butt;stroke-linejoin:miter;stroke-miterlimit:10;stroke-dasharray:none;stroke-opacity:1"
             id="path4135" /></g><g
           id="g4137"
           transform="translate(234.4209,43)"><path
             d="M 0,0 H 54.875"
             style="fill:none;stroke:#000000;stroke-width:15;stroke-linecap:butt;stroke-linejoin:miter;stroke-miterlimit:10;stroke-dasharray:none;stroke-opacity:1"
             id="path4139" /></g><g
           id="g4141"
           transform="translate(124.4209,43)"><path
             d="M 0,0 H 94.875"
             style="fill:none;stroke:#000000;stroke-width:15;stroke-linecap:butt;stroke-linejoin:miter;stroke-miterlimit:10;stroke-dasharray:none;stroke-opacity:1"
             id="path4143" /></g><g
           id="g4145"
           transform="translate(318.207,123.2949)"><path
             d="M 0,0 -53.998,31.771 -35.928,62.48 16.089,31.964"
             style="fill:none;stroke:#000000;stroke-width:15;stroke-linecap:butt;stroke-linejoin:miter;stroke-miterlimit:10;stroke-dasharray:none;stroke-opacity:1"
             id="path4147" /></g><g
           id="g4149"
           transform="translate(443.8247,101.7471)"><path
             d="M 0,0 35.411,-20.835 C 48.414,-28.486 52.753,-45.229 45.102,-58.232 37.451,-71.235 20.708,-75.573 7.705,-67.923 L -99.317,-4.952 -71.611,42.136 -12.874,7.575"
             style="fill:none;stroke:#000000;stroke-width:15;stroke-linecap:butt;stroke-linejoin:miter;stroke-miterlimit:10;stroke-dasharray:none;stroke-opacity:1"
             id="path4151" /></g><g
           id="g4153"
           transform="translate(303.8413,222.4219)"><path
             d="m 0,0 -61.194,-104.002 -61.808,36.367 61.194,104.003 z"
             style="fill:none;stroke:#000000;stroke-width:15;stroke-linecap:butt;stroke-linejoin:miter;stroke-miterlimit:10;stroke-dasharray:none;stroke-opacity:1"
             id="path4155" /></g><g
           id="g4157"
           transform="translate(252.2573,88.0293)"><path
             d="m 0,0 v 0 c -5.971,-10.148 -19.038,-13.534 -29.186,-7.563 l -65.903,38.776 c -10.148,5.972 -13.534,19.038 -7.563,29.186 5.971,10.148 19.038,13.535 29.186,7.563 L -7.563,29.186 C 2.585,23.215 5.971,10.147 0,0 Z"
             style="fill:none;stroke:#000000;stroke-width:15;stroke-linecap:butt;stroke-linejoin:miter;stroke-miterlimit:10;stroke-dasharray:none;stroke-opacity:1"
             id="path4159" /></g><g
           id="g4161"
           transform="translate(335.0742,228.7803)"><path
             d="m 0,0 v 0 c -5.971,-10.147 -19.038,-13.533 -29.186,-7.562 l -65.902,38.776 c -10.148,5.971 -13.535,19.038 -7.564,29.185 h 0.001 c 5.97,10.149 19.037,13.535 29.185,7.564 L -7.563,29.187 C 2.585,23.215 5.971,10.148 0,0 Z"
             style="fill:none;stroke:#000000;stroke-width:15;stroke-linecap:butt;stroke-linejoin:miter;stroke-miterlimit:10;stroke-dasharray:none;stroke-opacity:1"
             id="path4163" /></g><g
           id="g4165"
           transform="translate(374.5024,147.7725)"><path
             d="m 0,0 -32.284,-54.867 c -5.056,-8.593 -16.121,-11.461 -24.714,-6.404 h -0.001 c -8.592,5.056 -11.46,16.121 -6.404,24.714 l 32.284,54.868 c 5.056,8.592 16.121,11.46 24.714,6.404 C 2.188,19.659 5.056,8.594 0,0 Z"
             style="fill:none;stroke:#000000;stroke-width:15;stroke-linecap:butt;stroke-linejoin:miter;stroke-miterlimit:10;stroke-dasharray:none;stroke-opacity:1"
             id="path4167" /></g></g></g></g></svg>
