<svg id="Capa_1" enable-background="new 0 0 512.689 512.689" height="512" viewBox="0 0 512.689 512.689" width="512" xmlns="http://www.w3.org/2000/svg"><g><path d="m3.25 414.695 31.95 21.982c14.659 10.086 31.718 15.251 48.928 15.251 10.998 0 22.058-2.11 32.591-6.393l40.837-16.603c19.055-7.748 40.525-6.9 58.911 2.323l1.134.569c24.26 12.171 53.229 12.171 77.488 0l1.134-.569c18.385-9.223 39.855-10.07 58.911-2.323l40.836 16.603c27.021 10.985 57.492 7.673 81.52-8.859l31.95-21.982c3.413-2.348 4.275-7.018 1.928-10.43-2.348-3.413-7.02-4.277-10.43-1.928l-31.95 21.982c-19.857 13.663-45.041 16.399-67.368 7.321l-3.244-1.319c20.75-35.425 34.499-70.529 40.892-104.461.719-3.816-.438-7.79-3.094-10.63-2.015-2.155-4.064-4.282-6.131-6.395l-5.803-52.582c-.704-6.372-6.069-11.177-12.479-11.177h-3.763l-12.47-64.848c-1.097-5.708-6.111-9.851-11.924-9.851h-6.152l-3.758-24.294c-.633-4.093-4.459-6.891-8.559-6.266-4.094.633-6.898 4.465-6.266 8.559l3.403 22.001h-39.897l-10.348-66.899h39.897l2.001 12.936c.573 3.705 3.767 6.354 7.403 6.354.381 0 .767-.029 1.155-.089 4.094-.633 6.898-4.465 6.266-8.558l-9.419-60.89c-1.164-7.53-7.539-12.995-15.158-12.995h-41.927l-2.516-16.268c-1.164-7.53-7.54-12.995-15.159-12.995h-56.451c-7.619 0-13.995 5.465-15.159 12.995l-2.516 16.268h-41.927c-7.619 0-13.994 5.465-15.158 12.995l-18.121 117.147h-6.153c-5.812 0-10.826 4.143-11.923 9.85l-12.47 64.849h-1.244c-6.41 0-11.775 4.805-12.48 11.178l-5.484 49.698c-3.043 3.049-6.035 6.139-8.968 9.276-2.655 2.84-3.813 6.814-3.094 10.633 3.326 17.652 8.694 35.807 15.954 53.958 1.538 3.846 5.906 5.716 9.749 4.178 3.846-1.538 5.717-5.903 4.179-9.749-1.895-4.737-3.638-9.47-5.258-14.192 39.75-39.225 89.214-70.833 150.799-96.35v161.856c-8.454-.884-16.776-3.261-24.518-7.145l-1.134-.569c-22.248-11.161-48.229-12.185-71.286-2.811l-23.542 9.571c-4.296-7.246-8.323-14.507-11.983-21.655-1.887-3.688-6.406-5.146-10.094-3.259-3.687 1.888-5.146 6.407-3.258 10.094 3.473 6.785 7.257 13.663 11.283 20.533l-3.245 1.319c-22.324 9.077-47.51 6.342-67.367-7.321l-31.95-21.982c-3.413-2.348-8.082-1.484-10.43 1.928s-1.484 8.082 1.929 10.43zm357.533.343c-23.057-9.375-49.04-8.349-71.287 2.811l-1.134.569c-7.742 3.884-16.064 6.261-24.518 7.145v-161.852c8.95 3.711 17.702 7.568 26.098 11.52 3.745 1.764 8.215.155 9.979-3.592 1.764-3.748.155-8.216-3.593-9.98-10.391-4.891-21.312-9.635-32.484-14.146v-29.241c66.625 27.608 119.186 62.407 160.419 106.188-1.26 6.484-2.81 13.018-4.637 19.595-26.965-25.553-58.644-48.324-94.388-67.763-3.639-1.979-8.193-.634-10.172 3.006-1.979 3.639-.633 8.193 3.006 10.172 36.98 20.111 69.432 43.853 96.558 70.595-7.281 21.197-17.406 42.782-30.306 64.545zm52.371-122.48c-12.641-11.484-26.169-22.297-40.635-32.48h37.05zm-193.329-214.843h73.039l14.333 92.664h-101.706zm124.348-22.478c.168 0 .309.121.334.288l5.098 32.955h-39.897l-5.142-33.242h39.607zm-116.054-29.262h56.451c.166 0 .31.124.335.288l5.638 36.453h-68.398l5.639-36.454c.025-.167.166-.287.335-.287zm-59.603 29.262h39.607l-5.142 33.242h-39.896l5.098-32.955c.025-.166.165-.287.333-.287zm-7.752 48.243h39.896l-10.348 66.899h-39.896zm-29.318 81.899h249.797l11.479 59.698h-42.922c-26.589-16.457-56.046-31.101-88.68-44.109-3.087-1.225-6.482-1.223-9.563.005-32.628 13.007-62.082 27.649-88.668 44.104h-42.922zm-25.809 74.698h34.531c-13.403 9.435-26.004 19.409-37.837 29.959zm-12.578 83.932c-1.825-6.573-3.38-13.1-4.635-19.55 41.234-43.78 93.798-78.58 160.42-106.188v29.232c-63.224 25.516-114.358 57.18-155.785 96.506z"/><path d="m500.937 452.122-31.95 21.983c-19.855 13.662-45.038 16.398-67.368 7.321l-40.836-16.603c-23.057-9.375-49.04-8.349-71.287 2.811l-1.134.569c-20.049 10.057-43.988 10.057-64.035 0l-1.134-.569c-22.248-11.161-48.229-12.186-71.286-2.811l-40.838 16.603c-22.325 9.077-47.51 6.341-67.367-7.321l-31.95-21.983c-3.413-2.348-8.082-1.485-10.43 1.928-2.348 3.412-1.485 8.082 1.928 10.43l31.95 21.983c14.659 10.086 31.718 15.251 48.928 15.251 10.998 0 22.058-2.11 32.591-6.393l40.838-16.603c19.052-7.747 40.524-6.9 58.91 2.323l1.134.569c24.262 12.17 53.229 12.17 77.488 0l1.134-.569c18.385-9.223 39.855-10.07 58.911-2.323l40.836 16.603c27.021 10.984 57.493 7.672 81.52-8.859l31.95-21.983c3.413-2.348 4.275-7.018 1.928-10.43-2.349-3.412-7.021-4.276-10.431-1.927z"/><path d="m347.597 219.491h6.279c4.143 0 7.5-3.358 7.5-7.5s-3.357-7.5-7.5-7.5h-6.279c-4.143 0-7.5 3.358-7.5 7.5s3.358 7.5 7.5 7.5z"/><path d="m165.091 219.491c4.143 0 7.5-3.358 7.5-7.5s-3.357-7.5-7.5-7.5h-6.279c-4.143 0-7.5 3.358-7.5 7.5s3.357 7.5 7.5 7.5z"/></g></svg>