<svg id="iconscout" viewBox="0 0 64 64" xmlns="http://www.w3.org/2000/svg"><g fill="rgb(0,0,0)"><path d="m52 36.5h-40a5.01431 5.01431 0 0 0 -5 5v12a5.00181 5.00181 0 0 0 5 5h40a5.00181 5.00181 0 0 0 5-5v-12a5.0145 5.0145 0 0 0 -5-5zm-33 10h1.62a4.2501 4.2501 0 0 1 -.00013 8.5h-4.86987a1.0002 1.0002 0 0 1 .00006-2h4.86994a2.25 2.25 0 0 0 -.00007-4.5h-1.61993a4.25018 4.25018 0 0 1 .00012-8.5h4.87988a1.0002 1.0002 0 0 1 -.00006 2h-4.87994a2.25014 2.25014 0 0 0 0 4.5zm18.06 7.5a1.0002 1.0002 0 0 1 -2-.00006v-5.49994h-6.12v5.5a1 1 0 0 1 -2 0v-9.75a4.25283 4.25283 0 0 1 4.25-4.25h1.62a4.25283 4.25283 0 0 1 4.25 4.25zm7.94-5.5h-3.88v5.5a1.00011 1.00011 0 0 1 -2-.00006v-12.99994a1.003 1.003 0 0 1 1-1h4.88a4.25018 4.25018 0 0 1 0 8.5z"/><path d="m32.81 42h-1.62a2.2534 2.2534 0 0 0 -2.25 2.25v2.25h6.12v-2.25a2.2534 2.2534 0 0 0 -2.25-2.25z"/><path d="m45 42h-3.88v4.5h3.88a2.25014 2.25014 0 0 0 0-4.5z"/><path d="m59 28.28-1.71-.00006a5.27176 5.27176 0 0 1 -3.70978-8.96c.58464-.69988 2.16378-1.58886 1.20978-2.62994l-5.98-5.98a1.008 1.008 0 0 0 -1.42 0l-1.21 1.20984c-3.13361 3.26687-9.07948.89254-8.96-3.70984v-1.71a1.00291 1.00291 0 0 0 -1-1h-8.44a1.00291 1.00291 0 0 0 -1 1v1.71a5.24736 5.24736 0 0 1 -8.96 3.71l-1.21-1.21a1.008 1.008 0 0 0 -1.42 0l-5.98 5.98c-.954 1.04083.62519 1.93024 1.20984 2.62995 3.2992 3.14111.87756 9.07434-3.70984 8.96h-1.71a1.003 1.003 0 0 0 -1 1v8.44a1.003 1.003 0 0 0 1 1h.57a7.05864 7.05864 0 0 1 6.43-4.21995h5.54a14.49491 14.49491 0 1 1 28.92 0h5.54a7.05866 7.05866 0 0 1 6.43 4.22h.57a1.003 1.003 0 0 0 1-1v-8.44a1.003 1.003 0 0 0 -1-1z"/></g></svg>